<?xml version="1.0" encoding="UTF-8" standalone="no"?>
<!DOCTYPE svg PUBLIC "-//W3C//DTD SVG 1.1//EN"
 "http://www.w3.org/Graphics/SVG/1.1/DTD/svg11.dtd">
<!-- Generated by graphviz version 10.0.1 (20240210.2158)
 -->
<!-- Title: RunControlGeneratoFileFlowr Pages: 1 -->
<svg width="1244pt" height="406pt"
 viewBox="0.00 0.00 1243.81 405.50" xmlns="http://www.w3.org/2000/svg" xmlns:xlink="http://www.w3.org/1999/xlink">
<g id="graph0" class="graph" transform="scale(1 1) rotate(0) translate(4 401.5)">
<title>RunControlGeneratoFileFlowr</title>
<polygon fill="white" stroke="none" points="-4,4 -4,-401.5 1239.81,-401.5 1239.81,4 -4,4"/>
<text text-anchor="middle" x="617.91" y="-372.6" font-family="Helvetica,sans-Serif" font-size="22.00">Run Control Generator Data Flow</text>
<g id="clust1" class="cluster">
<title>cluster_rcg</title>
<polygon fill="none" stroke="black" points="434.4,-46 434.4,-157 643.35,-157 643.35,-46 434.4,-46"/>
<text text-anchor="middle" x="538.88" y="-132.1" font-family="Helvetica,sans-Serif" font-size="22.00">Phase 1</text>
</g>
<g id="clust2" class="cluster">
<title>cluster_rcf</title>
<polygon fill="none" stroke="black" points="701.97,-46 701.97,-265 807.97,-265 807.97,-46 701.97,-46"/>
<text text-anchor="middle" x="754.97" y="-240.1" font-family="Helvetica,sans-Serif" font-size="22.00">RC Files </text>
</g>
<g id="clust3" class="cluster">
<title>cluster_rca</title>
<polygon fill="none" stroke="black" points="865.1,-125 865.1,-236 1065.06,-236 1065.06,-125 865.1,-125"/>
<text text-anchor="middle" x="965.08" y="-211.1" font-family="Helvetica,sans-Serif" font-size="22.00">Phase 2</text>
</g>
<!-- WB -->
<g id="node1" class="node">
<title>WB</title>
<polygon fill="lawngreen" stroke="lawngreen" points="208.15,-182 126.15,-182 126.15,-100 208.15,-100 208.15,-182"/>
<text text-anchor="middle" x="167.15" y="-135.57" font-family="Times New Roman,serif" font-size="14.00">Workbench</text>
</g>
<!-- WBX -->
<g id="node12" class="node">
<title>WBX</title>
<polygon fill="#bfefff" stroke="#bfefff" points="375.65,-142 273.4,-142 273.4,-106 375.65,-106 375.65,-142"/>
<text text-anchor="middle" x="324.53" y="-118.58" font-family="Times New Roman,serif" font-size="14.00">WB XML Files</text>
</g>
<!-- WB&#45;&gt;WBX -->
<g id="edge2" class="edge">
<title>WB&#45;&gt;WBX</title>
<path fill="none" stroke="black" d="M208.57,-136.58C224.8,-134.8 243.88,-132.72 261.77,-130.76"/>
<polygon fill="black" stroke="black" points="261.96,-134.26 271.52,-129.69 261.2,-127.3 261.96,-134.26"/>
</g>
<!-- DB -->
<g id="node2" class="node">
<title>DB</title>
<ellipse fill="tan" stroke="tan" cx="44.58" cy="-84" rx="44.58" ry="44.58"/>
<text text-anchor="middle" x="44.58" y="-78.58" font-family="Times New Roman,serif" font-size="14.00">Database</text>
</g>
<!-- DB&#45;&gt;WB -->
<g id="edge1" class="edge">
<title>DB&#45;&gt;WB</title>
<path fill="none" stroke="black" d="M85.39,-102.82C95.07,-107.39 105.54,-112.34 115.63,-117.12"/>
<polygon fill="black" stroke="black" points="114.06,-120.25 124.6,-121.36 117.05,-113.92 114.06,-120.25"/>
</g>
<!-- RCG -->
<g id="node4" class="node">
<title>RCG</title>
<ellipse fill="PaleGreen" stroke="PaleGreen" cx="538.88" cy="-72" rx="96.47" ry="18"/>
<text text-anchor="middle" x="538.88" y="-66.58" font-family="Times New Roman,serif" font-size="14.00">Run Control Generator</text>
</g>
<!-- DB&#45;&gt;RCG -->
<g id="edge3" class="edge">
<title>DB&#45;&gt;RCG</title>
<path fill="none" stroke="brown" d="M89.27,-82.94C165.44,-81.08 324.61,-77.2 431.39,-74.6"/>
<polygon fill="brown" stroke="brown" points="431.42,-78.1 441.33,-74.35 431.25,-71.1 431.42,-78.1"/>
<text text-anchor="middle" x="240.78" y="-81.45" font-family="Times New Roman,serif" font-size="14.00">Read</text>
</g>
<!-- RUN -->
<g id="node3" class="node">
<title>RUN</title>
<ellipse fill="PaleGreen" stroke="PaleGreen" cx="324.53" cy="-227" rx="37.59" ry="18"/>
<text text-anchor="middle" x="324.53" y="-221.57" font-family="Times New Roman,serif" font-size="14.00">Runner</text>
</g>
<!-- RUN&#45;&gt;RCG -->
<g id="edge5" class="edge">
<title>RUN&#45;&gt;RCG</title>
<path fill="none" stroke="green" d="M346.28,-211.86C383.03,-185.03 459.87,-128.94 504.26,-96.54"/>
<polygon fill="green" stroke="green" points="506.24,-99.42 512.26,-90.7 502.12,-93.77 506.24,-99.42"/>
<text text-anchor="middle" x="409.03" y="-178.45" font-family="Times New Roman,serif" font-size="14.00">Call</text>
</g>
<!-- RCA -->
<g id="node8" class="node">
<title>RCA</title>
<ellipse fill="PaleGreen" stroke="PaleGreen" cx="965.08" cy="-151" rx="91.98" ry="18"/>
<text text-anchor="middle" x="965.08" y="-145.57" font-family="Times New Roman,serif" font-size="14.00">Run Control Analyzer</text>
</g>
<!-- RUN&#45;&gt;RCA -->
<g id="edge6" class="edge">
<title>RUN&#45;&gt;RCA</title>
<path fill="none" stroke="green" d="M353.08,-239.17C374.71,-248.04 405.84,-259.28 434.4,-264 598.23,-291.07 650.55,-321.8 807.97,-269 861.92,-250.91 912.09,-205.99 940.34,-177.08"/>
<polygon fill="green" stroke="green" points="942.61,-179.77 947,-170.13 937.55,-174.93 942.61,-179.77"/>
<text text-anchor="middle" x="668.72" y="-299.45" font-family="Times New Roman,serif" font-size="14.00">Call</text>
</g>
<!-- RPT -->
<g id="node13" class="node">
<title>RPT</title>
<polygon fill="beige" stroke="beige" points="579.88,-255 497.88,-255 497.88,-219 579.88,-219 579.88,-255"/>
<text text-anchor="middle" x="538.88" y="-231.57" font-family="Times New Roman,serif" font-size="14.00">Run Report</text>
</g>
<!-- RUN&#45;&gt;RPT -->
<g id="edge17" class="edge">
<title>RUN&#45;&gt;RPT</title>
<path fill="none" stroke="brown" d="M362.03,-228.72C396.21,-230.33 447.62,-232.75 486.04,-234.56"/>
<polygon fill="brown" stroke="brown" points="485.85,-238.05 496,-235.03 486.18,-231.06 485.85,-238.05"/>
<text text-anchor="middle" x="409.03" y="-233.45" font-family="Times New Roman,serif" font-size="14.00">Write</text>
</g>
<!-- LOG -->
<g id="node14" class="node">
<title>LOG</title>
<polygon fill="beige" stroke="beige" points="565.88,-201 511.88,-201 511.88,-165 565.88,-165 565.88,-201"/>
<text text-anchor="middle" x="538.88" y="-177.57" font-family="Times New Roman,serif" font-size="14.00">Log</text>
</g>
<!-- RUN&#45;&gt;LOG -->
<g id="edge18" class="edge">
<title>RUN&#45;&gt;LOG</title>
<path fill="none" stroke="brown" d="M358.36,-218.54C369.53,-215.77 382.11,-212.76 393.65,-210.25 429.66,-202.43 470.99,-194.75 500.16,-189.55"/>
<polygon fill="brown" stroke="brown" points="500.75,-193 509.98,-187.81 499.52,-186.11 500.75,-193"/>
<text text-anchor="middle" x="409.03" y="-212.45" font-family="Times New Roman,serif" font-size="14.00">Write</text>
</g>
<!-- JLT -->
<g id="node5" class="node">
<title>JLT</title>
<polygon fill="pink" stroke="pink" points="781.97,-198 727.97,-198 727.97,-162 781.97,-162 781.97,-198"/>
<text text-anchor="middle" x="754.97" y="-174.57" font-family="Times New Roman,serif" font-size="14.00">JLT</text>
</g>
<!-- RCG&#45;&gt;JLT -->
<g id="edge10" class="edge">
<title>RCG&#45;&gt;JLT</title>
<path fill="none" stroke="pink" d="M573.8,-89.11C612.98,-108.88 677.2,-141.27 717.45,-161.58"/>
<polygon fill="pink" stroke="pink" points="715.78,-164.65 726.28,-166.03 718.93,-158.4 715.78,-164.65"/>
<text text-anchor="middle" x="668.72" y="-143.45" font-family="Times New Roman,serif" font-size="14.00">Write</text>
</g>
<!-- XLT -->
<g id="node6" class="node">
<title>XLT</title>
<polygon fill="pink" stroke="pink" points="781.97,-144 727.97,-144 727.97,-108 781.97,-108 781.97,-144"/>
<text text-anchor="middle" x="754.97" y="-120.58" font-family="Times New Roman,serif" font-size="14.00">XLT</text>
</g>
<!-- RCG&#45;&gt;XLT -->
<g id="edge9" class="edge">
<title>RCG&#45;&gt;XLT</title>
<path fill="none" stroke="pink" d="M597.81,-86.61C635.59,-96.14 683.78,-108.3 716.57,-116.57"/>
<polygon fill="pink" stroke="pink" points="715.46,-119.9 726.02,-118.95 717.18,-113.11 715.46,-119.9"/>
<text text-anchor="middle" x="668.72" y="-108.45" font-family="Times New Roman,serif" font-size="14.00">Write</text>
</g>
<!-- VDP -->
<g id="node7" class="node">
<title>VDP</title>
<polygon fill="pink" stroke="pink" points="781.97,-90 727.97,-90 727.97,-54 781.97,-54 781.97,-90"/>
<text text-anchor="middle" x="754.97" y="-66.58" font-family="Times New Roman,serif" font-size="14.00">VDP</text>
</g>
<!-- RCG&#45;&gt;VDP -->
<g id="edge8" class="edge">
<title>RCG&#45;&gt;VDP</title>
<path fill="none" stroke="pink" d="M635.65,-72C664.15,-72 693.73,-72 716.19,-72"/>
<polygon fill="pink" stroke="pink" points="716.04,-75.5 726.04,-72 716.04,-68.5 716.04,-75.5"/>
<text text-anchor="middle" x="668.72" y="-74.45" font-family="Times New Roman,serif" font-size="14.00">Write</text>
</g>
<!-- VDPXMLO -->
<g id="node9" class="node">
<title>VDPXMLO</title>
<polygon fill="orange" stroke="orange" points="791.85,-36 718.1,-36 718.1,0 791.85,0 791.85,-36"/>
<text text-anchor="middle" x="754.97" y="-12.57" font-family="Times New Roman,serif" font-size="14.00">VDPXML</text>
</g>
<!-- RCG&#45;&gt;VDPXMLO -->
<g id="edge11" class="edge">
<title>RCG&#45;&gt;VDPXMLO</title>
<path fill="none" stroke="black" d="M597.81,-57.39C632.04,-48.75 674.83,-37.96 706.95,-29.86"/>
<polygon fill="black" stroke="black" points="707.53,-33.32 716.37,-27.48 705.82,-26.54 707.53,-33.32"/>
</g>
<!-- JLT&#45;&gt;RCA -->
<g id="edge15" class="edge">
<title>JLT&#45;&gt;RCA</title>
<path fill="none" stroke="pink" d="M782.33,-176.33C806.51,-172.96 843.69,-167.78 878.14,-162.98"/>
<polygon fill="pink" stroke="pink" points="878.29,-166.49 887.71,-161.64 877.33,-159.56 878.29,-166.49"/>
<text text-anchor="middle" x="840.47" y="-171.45" font-family="Times New Roman,serif" font-size="14.00">Read</text>
</g>
<!-- XLT&#45;&gt;RCA -->
<g id="edge14" class="edge">
<title>XLT&#45;&gt;RCA</title>
<path fill="none" stroke="pink" d="M782.1,-128.08C802.11,-129.75 830.38,-132.31 855.1,-135.25 863.13,-136.2 871.47,-137.27 879.82,-138.39"/>
<polygon fill="pink" stroke="pink" points="879.28,-141.85 889.66,-139.74 880.23,-134.92 879.28,-141.85"/>
<text text-anchor="middle" x="840.47" y="-137.45" font-family="Times New Roman,serif" font-size="14.00">Read</text>
</g>
<!-- VDP&#45;&gt;RCA -->
<g id="edge13" class="edge">
<title>VDP&#45;&gt;RCA</title>
<path fill="none" stroke="pink" d="M782.33,-82.01C814.46,-94.2 869.55,-115.11 910.67,-130.73"/>
<polygon fill="pink" stroke="pink" points="909.33,-133.96 919.92,-134.24 911.82,-127.42 909.33,-133.96"/>
<text text-anchor="middle" x="840.47" y="-111.45" font-family="Times New Roman,serif" font-size="14.00">Read</text>
</g>
<!-- REPS -->
<g id="node15" class="node">
<title>REPS</title>
<polygon fill="beige" stroke="beige" points="1235.81,-169 1123.81,-169 1123.81,-133 1235.81,-133 1235.81,-169"/>
<text text-anchor="middle" x="1179.81" y="-145.57" font-family="Times New Roman,serif" font-size="14.00">Analysis Reports</text>
</g>
<!-- RCA&#45;&gt;REPS -->
<g id="edge16" class="edge">
<title>RCA&#45;&gt;REPS</title>
<path fill="none" stroke="brown" d="M1057.53,-151C1075.92,-151 1094.9,-151 1112.25,-151"/>
<polygon fill="brown" stroke="brown" points="1111.87,-154.5 1121.87,-151 1111.87,-147.5 1111.87,-154.5"/>
<text text-anchor="middle" x="1090.44" y="-153.45" font-family="Times New Roman,serif" font-size="14.00">Write</text>
</g>
<!-- VDPXMLI -->
<g id="node10" class="node">
<title>VDPXMLI</title>
<polygon fill="orange" stroke="orange" points="361.4,-44 287.65,-44 287.65,-8 361.4,-8 361.4,-44"/>
<text text-anchor="middle" x="324.53" y="-20.57" font-family="Times New Roman,serif" font-size="14.00">VDPXML</text>
</g>
<!-- VDPXMLI&#45;&gt;RCG -->
<g id="edge12" class="edge">
<title>VDPXMLI&#45;&gt;RCG</title>
<path fill="none" stroke="black" d="M361.55,-33.8C389.42,-39.84 428.96,-48.41 463.53,-55.9"/>
<polygon fill="black" stroke="black" points="462.57,-59.27 473.08,-57.96 464.05,-52.43 462.57,-59.27"/>
</g>
<!-- RAP -->
<g id="node11" class="node">
<title>RAP</title>
<polygon fill="#bfefff" stroke="#bfefff" points="204.4,-245 129.9,-245 129.9,-209 204.4,-209 204.4,-245"/>
<text text-anchor="middle" x="167.15" y="-221.57" font-family="Times New Roman,serif" font-size="14.00">RCAParm</text>
</g>
<!-- RAP&#45;&gt;RUN -->
<g id="edge4" class="edge">
<title>RAP&#45;&gt;RUN</title>
<path fill="none" stroke="black" d="M204.58,-227C225.59,-227 252.26,-227 275.02,-227"/>
<polygon fill="black" stroke="black" points="275.01,-230.5 285.01,-227 275.01,-223.5 275.01,-230.5"/>
</g>
<!-- WBX&#45;&gt;RCG -->
<g id="edge7" class="edge">
<title>WBX&#45;&gt;RCG</title>
<path fill="none" stroke="blue" d="M376.09,-110.7C382.01,-109.18 387.96,-107.67 393.65,-106.25 417.15,-100.4 442.86,-94.22 465.98,-88.75"/>
<polygon fill="blue" stroke="blue" points="466.7,-92.17 475.63,-86.47 465.1,-85.36 466.7,-92.17"/>
<text text-anchor="middle" x="409.03" y="-108.45" font-family="Times New Roman,serif" font-size="14.00">Read</text>
</g>
</g>
</svg>
