<?xml version="1.0" encoding="UTF-8" standalone="no"?>
<!DOCTYPE svg PUBLIC "-//W3C//DTD SVG 1.1//EN"
 "http://www.w3.org/Graphics/SVG/1.1/DTD/svg11.dtd">
<!-- Generated by graphviz version 10.0.1 (20240210.2158)
 -->
<!-- Title: FrontendProjects Pages: 1 -->
<svg width="700pt" height="898pt"
 viewBox="0.00 0.00 700.34 897.50" xmlns="http://www.w3.org/2000/svg" xmlns:xlink="http://www.w3.org/1999/xlink">
<g id="graph0" class="graph" transform="scale(1 1) rotate(0) translate(4 893.5)">
<title>FrontendProjects</title>
<polygon fill="white" stroke="none" points="-4,4 -4,-893.5 696.34,-893.5 696.34,4 -4,4"/>
<text text-anchor="middle" x="346.17" y="-864.6" font-family="Helvetica,sans-Serif" font-size="22.00">Run Control Apps Package Hierarchy</text>
<g id="clust1" class="cluster">
<title>cluster_rca</title>
<polygon fill="none" stroke="black" points="116.34,-738 116.34,-822.75 303.34,-822.75 303.34,-738 116.34,-738"/>
<text text-anchor="middle" x="209.84" y="-797.85" font-family="Helvetica,sans-Serif" font-size="22.00">Run Control Apps</text>
</g>
<g id="clust2" class="cluster">
<title>cluster_rcg</title>
<polygon fill="none" stroke="black" points="22.34,-558 22.34,-642.75 258.34,-642.75 258.34,-558 22.34,-558"/>
<text text-anchor="middle" x="140.34" y="-617.85" font-family="Helvetica,sans-Serif" font-size="22.00">Run Control Generator</text>
</g>
<g id="clust3" class="cluster">
<title>cluster_comp</title>
<polygon fill="none" stroke="black" points="12.34,-378 12.34,-462.75 214.34,-462.75 214.34,-378 12.34,-378"/>
<text text-anchor="middle" x="113.34" y="-437.85" font-family="Helvetica,sans-Serif" font-size="22.00">Compilers</text>
</g>
<g id="clust4" class="cluster">
<title>cluster_fa</title>
<polygon fill="none" stroke="black" points="222.34,-378 222.34,-462.75 444.34,-462.75 444.34,-378 222.34,-378"/>
<text text-anchor="middle" x="333.34" y="-437.85" font-family="Helvetica,sans-Serif" font-size="22.00">Run Control Analyser</text>
</g>
<g id="clust5" class="cluster">
<title>cluster_compgen</title>
<polygon fill="none" stroke="black" points="452.34,-378 452.34,-462.75 684.34,-462.75 684.34,-378 452.34,-378"/>
<text text-anchor="middle" x="568.34" y="-437.85" font-family="Helvetica,sans-Serif" font-size="22.00">Component Generator</text>
</g>
<g id="clust6" class="cluster">
<title>cluster_gio</title>
<polygon fill="none" stroke="black" points="119.34,-190 119.34,-323.5 497.34,-323.5 497.34,-190 119.34,-190"/>
<text text-anchor="middle" x="308.34" y="-298.6" font-family="Helvetica,sans-Serif" font-size="22.00">GenevaIO</text>
</g>
<g id="clust7" class="cluster">
<title>cluster_giolt</title>
<polygon fill="none" stroke="black" points="127.34,-198 127.34,-282.75 219.34,-282.75 219.34,-198 127.34,-198"/>
<text text-anchor="middle" x="173.34" y="-257.85" font-family="Helvetica,sans-Serif" font-size="22.00">Outputs</text>
</g>
<g id="clust8" class="cluster">
<title>cluster_gior</title>
<polygon fill="none" stroke="black" points="227.34,-198 227.34,-282.75 393.34,-282.75 393.34,-198 227.34,-198"/>
<text text-anchor="middle" x="310.34" y="-257.85" font-family="Helvetica,sans-Serif" font-size="22.00">Readers</text>
</g>
<g id="clust9" class="cluster">
<title>cluster_giow</title>
<polygon fill="none" stroke="black" points="401.34,-198 401.34,-282.75 489.34,-282.75 489.34,-198 401.34,-198"/>
<text text-anchor="middle" x="445.34" y="-257.85" font-family="Helvetica,sans-Serif" font-size="22.00">Writers</text>
</g>
<g id="clust10" class="cluster">
<title>cluster_repo</title>
<polygon fill="none" stroke="black" points="206.34,-8 206.34,-112.75 414.34,-112.75 414.34,-8 206.34,-8"/>
<text text-anchor="middle" x="310.34" y="-87.85" font-family="Helvetica,sans-Serif" font-size="22.00">Repository</text>
</g>
<!-- RCA -->
<g id="node1" class="node">
<title>RCA</title>
<polygon fill="PaleGreen" stroke="PaleGreen" points="260.47,-782 140.22,-782 140.22,-746 260.47,-746 260.47,-782"/>
<text text-anchor="middle" x="200.34" y="-758.58" font-family="Times New Roman,serif" font-size="14.00">Run Control Apps</text>
</g>
<!-- RCG -->
<g id="node2" class="node">
<title>RCG</title>
<polygon fill="PaleGreen" stroke="PaleGreen" points="185.84,-602 40.84,-602 40.84,-566 185.84,-566 185.84,-602"/>
<text text-anchor="middle" x="113.34" y="-578.58" font-family="Times New Roman,serif" font-size="14.00">Run Control Generator</text>
</g>
<!-- RCA&#45;&gt;RCG -->
<g id="edge10" class="edge">
<title>RCA&#45;&gt;RCG</title>
<path fill="none" stroke="black" d="M188.13,-738C177.35,-715.96 161.15,-682.8 146.57,-652.98"/>
<polygon fill="black" stroke="black" points="149.77,-651.55 142.23,-644.11 143.48,-654.63 149.77,-651.55"/>
</g>
<!-- RCAN -->
<g id="node4" class="node">
<title>RCAN</title>
<polygon fill="PaleGreen" stroke="PaleGreen" points="379.47,-422 241.22,-422 241.22,-386 379.47,-386 379.47,-422"/>
<text text-anchor="middle" x="310.34" y="-398.57" font-family="Times New Roman,serif" font-size="14.00">Run Control Analyser</text>
</g>
<!-- RCA&#45;&gt;RCAN -->
<g id="edge11" class="edge">
<title>RCA&#45;&gt;RCAN</title>
<path fill="none" stroke="black" d="M215.84,-738C229.9,-714.3 250.23,-677.27 262.34,-642.75 281.73,-587.53 294.22,-522.19 301.58,-473.99"/>
<polygon fill="black" stroke="black" points="305.02,-474.65 303.03,-464.24 298.1,-473.62 305.02,-474.65"/>
</g>
<!-- COMPS -->
<g id="node3" class="node">
<title>COMPS</title>
<polygon fill="#bfefff" stroke="#bfefff" points="206.09,-422 20.59,-422 20.59,-386 206.09,-386 206.09,-422"/>
<text text-anchor="middle" x="113.34" y="-398.57" font-family="Times New Roman,serif" font-size="14.00">Extract and Format Compilers</text>
</g>
<!-- RCG&#45;&gt;COMPS -->
<g id="edge5" class="edge">
<title>RCG&#45;&gt;COMPS</title>
<path fill="none" stroke="black" d="M113.34,-558C113.34,-536.18 113.34,-503.44 113.34,-473.85"/>
<polygon fill="black" stroke="black" points="116.84,-474.26 113.34,-464.26 109.84,-474.26 116.84,-474.26"/>
</g>
<!-- REPODATA -->
<g id="node10" class="node">
<title>REPODATA</title>
<polygon fill="#bfefff" stroke="#bfefff" points="396.72,-62 223.97,-62 223.97,-26 396.72,-26 396.72,-62"/>
<text text-anchor="middle" x="310.34" y="-38.58" font-family="Times New Roman,serif" font-size="14.00">Run Control Definition Data</text>
</g>
<!-- RCG&#45;&gt;REPODATA -->
<g id="edge6" class="edge">
<title>RCG&#45;&gt;REPODATA</title>
<path fill="none" stroke="black" d="M81.48,-558C56.24,-536.02 22.89,-501.53 8.34,-462.75 -4.89,-427.48 0.16,-414.77 8.34,-378 28.38,-287.95 36.45,-260.17 96.34,-190 124.33,-157.21 161.44,-128.62 196.89,-105.68"/>
<polygon fill="black" stroke="black" points="198.51,-108.8 205.07,-100.48 194.75,-102.89 198.51,-108.8"/>
</g>
<!-- RCDEFS -->
<g id="node8" class="node">
<title>RCDEFS</title>
<polygon fill="#bfefff" stroke="#bfefff" points="385.09,-242 235.59,-242 235.59,-206 385.09,-206 385.09,-242"/>
<text text-anchor="middle" x="310.34" y="-218.57" font-family="Times New Roman,serif" font-size="14.00">Run Control Definitions</text>
</g>
<!-- COMPS&#45;&gt;RCDEFS -->
<g id="edge1" class="edge">
<title>COMPS&#45;&gt;RCDEFS</title>
<path fill="none" stroke="black" d="M152.24,-378C171.33,-365.08 194.52,-348.4 214.84,-330.99"/>
<polygon fill="black" stroke="black" points="217.02,-333.74 222.21,-324.5 212.39,-328.48 217.02,-333.74"/>
</g>
<!-- COMPS&#45;&gt;REPODATA -->
<g id="edge7" class="edge">
<title>COMPS&#45;&gt;REPODATA</title>
<path fill="none" stroke="black" d="M108.12,-378C100.76,-336.35 91.51,-251.28 123.34,-190 140.26,-157.43 168.14,-129.94 197.28,-107.94"/>
<polygon fill="black" stroke="black" points="199.13,-110.92 205.13,-102.19 194.99,-105.27 199.13,-110.92"/>
</g>
<!-- RCAN&#45;&gt;RCDEFS -->
<g id="edge2" class="edge">
<title>RCAN&#45;&gt;RCDEFS</title>
<path fill="none" stroke="black" d="M310.34,-378C310.34,-366.12 310.34,-351.01 310.34,-334.93"/>
<polygon fill="black" stroke="black" points="313.84,-335.01 310.34,-325.01 306.84,-335.01 313.84,-335.01"/>
</g>
<!-- RCAN&#45;&gt;REPODATA -->
<g id="edge3" class="edge">
<title>RCAN&#45;&gt;REPODATA</title>
<path fill="none" stroke="black" d="M422.1,-378C450.01,-366.2 476.7,-348.88 493.34,-323.5 525.88,-273.89 519.17,-243.42 493.34,-190 477.85,-157.96 451.46,-130.84 423.47,-109.04"/>
<polygon fill="black" stroke="black" points="425.64,-106.29 415.55,-103.06 421.42,-111.88 425.64,-106.29"/>
</g>
<!-- COMPRECS -->
<g id="node5" class="node">
<title>COMPRECS</title>
<polygon fill="PaleGreen" stroke="PaleGreen" points="524.34,-422 460.34,-422 460.34,-386 524.34,-386 524.34,-422"/>
<text text-anchor="middle" x="492.34" y="-398.57" font-family="Times New Roman,serif" font-size="14.00">Records</text>
</g>
<!-- COMPRECS&#45;&gt;RCDEFS -->
<g id="edge8" class="edge">
<title>COMPRECS&#45;&gt;RCDEFS</title>
<path fill="none" stroke="black" d="M460.08,-378C443.71,-364.91 423.53,-348.11 405.5,-331.27"/>
<polygon fill="black" stroke="black" points="408.09,-328.91 398.44,-324.54 403.26,-333.98 408.09,-328.91"/>
</g>
<!-- COMPCOMPS -->
<g id="node6" class="node">
<title>COMPCOMPS</title>
<polygon fill="PaleGreen" stroke="PaleGreen" points="630.34,-422 542.34,-422 542.34,-386 630.34,-386 630.34,-422"/>
<text text-anchor="middle" x="586.34" y="-398.57" font-family="Times New Roman,serif" font-size="14.00">Components</text>
</g>
<!-- COMPCOMPS&#45;&gt;REPODATA -->
<g id="edge9" class="edge">
<title>COMPCOMPS&#45;&gt;REPODATA</title>
<path fill="none" stroke="black" d="M583.47,-378C577.54,-335.63 560.67,-248.61 517.34,-190 492.64,-156.58 457.89,-128.05 423.9,-105.35"/>
<polygon fill="black" stroke="black" points="425.9,-102.48 415.61,-99.94 422.07,-108.34 425.9,-102.48"/>
</g>
<!-- LTR -->
<g id="node7" class="node">
<title>LTR</title>
<polygon fill="#bfefff" stroke="#bfefff" points="206.09,-242 140.59,-242 140.59,-206 206.09,-206 206.09,-242"/>
<text text-anchor="middle" x="173.34" y="-218.57" font-family="Times New Roman,serif" font-size="14.00">RC Files</text>
</g>
<!-- RCDEFS&#45;&gt;REPODATA -->
<g id="edge4" class="edge">
<title>RCDEFS&#45;&gt;REPODATA</title>
<path fill="none" stroke="black" d="M310.34,-205.61C310.34,-186.47 310.34,-154.38 310.34,-123.88"/>
<polygon fill="black" stroke="black" points="313.84,-124.26 310.34,-114.26 306.84,-124.26 313.84,-124.26"/>
</g>
<!-- REPORTS -->
<g id="node9" class="node">
<title>REPORTS</title>
<polygon fill="#bfefff" stroke="#bfefff" points="475.84,-242 414.84,-242 414.84,-206 475.84,-206 475.84,-242"/>
<text text-anchor="middle" x="445.34" y="-218.57" font-family="Times New Roman,serif" font-size="14.00">Reports</text>
</g>
</g>
</svg>
