<?xml version="1.0" encoding="UTF-8" standalone="no"?>
<!DOCTYPE svg PUBLIC "-//W3C//DTD SVG 1.1//EN"
 "http://www.w3.org/Graphics/SVG/1.1/DTD/svg11.dtd">
<!-- Generated by graphviz version 10.0.1 (20240210.2158)
 -->
<!-- Title: FrontendProjects Pages: 1 -->
<svg width="1313pt" height="924pt"
 viewBox="0.00 0.00 1312.86 923.50" xmlns="http://www.w3.org/2000/svg" xmlns:xlink="http://www.w3.org/1999/xlink">
<g id="graph0" class="graph" transform="scale(1 1) rotate(0) translate(4 919.5)">
<title>FrontendProjects</title>
<polygon fill="white" stroke="none" points="-4,4 -4,-919.5 1308.86,-919.5 1308.86,4 -4,4"/>
<text text-anchor="middle" x="652.43" y="-890.6" font-family="Helvetica,sans-Serif" font-size="22.00">Run Control Apps</text>
<g id="clust1" class="cluster">
<title>cluster_rcg</title>
<polygon fill="none" stroke="black" points="973,-558 973,-822.75 1249,-822.75 1249,-558 973,-558"/>
<text text-anchor="middle" x="1111" y="-797.85" font-family="Helvetica,sans-Serif" font-size="22.00">Run Control Generator</text>
</g>
<g id="clust2" class="cluster">
<title>cluster_comp</title>
<polygon fill="none" stroke="black" points="695,-558 695,-642.75 965,-642.75 965,-558 695,-558"/>
<text text-anchor="middle" x="830" y="-617.85" font-family="Helvetica,sans-Serif" font-size="22.00">Compilers</text>
</g>
<g id="clust3" class="cluster">
<title>cluster_fa</title>
<polygon fill="none" stroke="black" points="409,-558 409,-642.75 631,-642.75 631,-558 409,-558"/>
<text text-anchor="middle" x="520" y="-617.85" font-family="Helvetica,sans-Serif" font-size="22.00">Run Control Analyser</text>
</g>
<g id="clust4" class="cluster">
<title>cluster_wb</title>
<polygon fill="none" stroke="black" points="523,-738 523,-822.75 775,-822.75 775,-738 523,-738"/>
<text text-anchor="middle" x="649" y="-797.85" font-family="Helvetica,sans-Serif" font-size="22.00">Workbench Interface</text>
</g>
<g id="clust5" class="cluster">
<title>cluster_gio</title>
<polygon fill="none" stroke="black" points="8,-190 8,-503.5 1276,-503.5 1276,-190 8,-190"/>
<text text-anchor="middle" x="642" y="-478.6" font-family="Helvetica,sans-Serif" font-size="22.00">GenevaIO</text>
</g>
<g id="clust6" class="cluster">
<title>cluster_giolt</title>
<polygon fill="none" stroke="black" points="623,-198 623,-462.75 806,-462.75 806,-198 623,-198"/>
<text text-anchor="middle" x="714.5" y="-437.85" font-family="Helvetica,sans-Serif" font-size="22.00">LT File</text>
</g>
<g id="clust7" class="cluster">
<title>cluster_giovdp</title>
<polygon fill="none" stroke="black" points="370,-198 370,-462.75 615,-462.75 615,-198 370,-198"/>
<text text-anchor="middle" x="492.5" y="-437.85" font-family="Helvetica,sans-Serif" font-size="22.00">VDP File</text>
</g>
<g id="clust8" class="cluster">
<title>cluster_gior</title>
<polygon fill="none" stroke="black" points="814,-378 814,-462.75 1268,-462.75 1268,-378 814,-378"/>
<text text-anchor="middle" x="1041" y="-437.85" font-family="Helvetica,sans-Serif" font-size="22.00">Readers</text>
</g>
<g id="clust9" class="cluster">
<title>cluster_giow</title>
<polygon fill="none" stroke="black" points="16,-378 16,-462.75 362,-462.75 362,-378 16,-378"/>
<text text-anchor="middle" x="189" y="-437.85" font-family="Helvetica,sans-Serif" font-size="22.00">Writers</text>
</g>
<g id="clust10" class="cluster">
<title>cluster_repo</title>
<polygon fill="none" stroke="black" points="813,-8 813,-112.75 989,-112.75 989,-8 813,-8"/>
<text text-anchor="middle" x="901" y="-87.85" font-family="Helvetica,sans-Serif" font-size="22.00">Repository</text>
</g>
<!-- RCG -->
<g id="node1" class="node">
<title>RCG</title>
<polygon fill="PaleGreen" stroke="PaleGreen" points="1126.5,-782 981.5,-782 981.5,-746 1126.5,-746 1126.5,-782"/>
<text text-anchor="middle" x="1054" y="-758.58" font-family="Times New Roman,serif" font-size="14.00">Run Control Generator</text>
</g>
<!-- SPO -->
<g id="node2" class="node">
<title>SPO</title>
<polygon fill="#bfefff" stroke="#bfefff" points="1119.12,-602 980.88,-602 980.88,-566 1119.12,-566 1119.12,-602"/>
<text text-anchor="middle" x="1050" y="-578.58" font-family="Times New Roman,serif" font-size="14.00">Single Pass Optimiser</text>
</g>
<!-- RCG&#45;&gt;SPO -->
<g id="edge12" class="edge">
<title>RCG&#45;&gt;SPO</title>
<path fill="none" stroke="black" d="M1053.61,-745.61C1052.92,-714.9 1051.48,-650.81 1050.64,-613.54"/>
<polygon fill="black" stroke="black" points="1054.15,-613.89 1050.43,-603.98 1047.15,-614.05 1054.15,-613.89"/>
</g>
<!-- JLT -->
<g id="node3" class="node">
<title>JLT</title>
<polygon fill="#bfefff" stroke="#bfefff" points="1240.5,-602 1137.5,-602 1137.5,-566 1240.5,-566 1240.5,-602"/>
<text text-anchor="middle" x="1189" y="-578.58" font-family="Times New Roman,serif" font-size="14.00">JLT Generation</text>
</g>
<!-- RCG&#45;&gt;JLT -->
<g id="edge15" class="edge">
<title>RCG&#45;&gt;JLT</title>
<path fill="none" stroke="black" d="M1067.19,-745.61C1090.88,-714.37 1140.78,-648.58 1168.8,-611.63"/>
<polygon fill="black" stroke="black" points="1171.59,-613.75 1174.84,-603.67 1166.01,-609.52 1171.59,-613.75"/>
</g>
<!-- EPF -->
<g id="node4" class="node">
<title>EPF</title>
<polygon fill="#bfefff" stroke="#bfefff" points="956.62,-602 839.38,-602 839.38,-566 956.62,-566 956.62,-602"/>
<text text-anchor="middle" x="898" y="-578.58" font-family="Times New Roman,serif" font-size="14.00">Extract Compilers</text>
</g>
<!-- RCG&#45;&gt;EPF -->
<g id="edge14" class="edge">
<title>RCG&#45;&gt;EPF</title>
<path fill="none" stroke="black" d="M1038.76,-745.61C1011.15,-714.1 952.74,-647.46 920.52,-610.69"/>
<polygon fill="black" stroke="black" points="923.52,-608.81 914.3,-603.6 918.26,-613.43 923.52,-608.81"/>
</g>
<!-- FPF -->
<g id="node5" class="node">
<title>FPF</title>
<polygon fill="#bfefff" stroke="#bfefff" points="821,-602 703,-602 703,-566 821,-566 821,-602"/>
<text text-anchor="middle" x="762" y="-578.58" font-family="Times New Roman,serif" font-size="14.00">Format Compilers</text>
</g>
<!-- RCG&#45;&gt;FPF -->
<g id="edge13" class="edge">
<title>RCG&#45;&gt;FPF</title>
<path fill="none" stroke="black" d="M1015.73,-745.53C969.97,-723.95 891.82,-684.89 830,-642.75 815.58,-632.92 800.69,-620.56 788.52,-609.8"/>
<polygon fill="black" stroke="black" points="791.1,-607.4 781.32,-603.32 786.41,-612.61 791.1,-607.4"/>
</g>
<!-- VDPR -->
<g id="node12" class="node">
<title>VDPR</title>
<polygon fill="#bfefff" stroke="#bfefff" points="485.75,-422 378.25,-422 378.25,-386 485.75,-386 485.75,-422"/>
<text text-anchor="middle" x="432" y="-398.57" font-family="Times New Roman,serif" font-size="14.00">VDPFile Reader</text>
</g>
<!-- SPO&#45;&gt;VDPR -->
<g id="edge4" class="edge">
<title>SPO&#45;&gt;VDPR</title>
<path fill="none" stroke="black" d="M973,-558.87C971.66,-558.57 970.33,-558.28 969,-558 865.23,-536.22 584.94,-559.65 495,-503.5 482.5,-495.69 472.02,-484.39 463.42,-472.2"/>
<polygon fill="black" stroke="black" points="466.46,-470.45 458.04,-464.01 460.61,-474.29 466.46,-470.45"/>
</g>
<!-- WB -->
<g id="node15" class="node">
<title>WB</title>
<polygon fill="#bfefff" stroke="#bfefff" points="994.25,-422 925.75,-422 925.75,-386 994.25,-386 994.25,-422"/>
<text text-anchor="middle" x="960" y="-398.57" font-family="Times New Roman,serif" font-size="14.00">WBXML</text>
</g>
<!-- EPF&#45;&gt;WB -->
<g id="edge1" class="edge">
<title>EPF&#45;&gt;WB</title>
<path fill="none" stroke="black" d="M906.71,-558C914.35,-536.07 925.82,-503.12 936.17,-473.42"/>
<polygon fill="black" stroke="black" points="939.4,-474.77 939.39,-464.18 932.79,-472.47 939.4,-474.77"/>
</g>
<!-- REPOC -->
<g id="node22" class="node">
<title>REPOC</title>
<polygon fill="#bfefff" stroke="#bfefff" points="971,-62 917,-62 917,-26 971,-26 971,-62"/>
<text text-anchor="middle" x="944" y="-38.58" font-family="Times New Roman,serif" font-size="14.00">Views</text>
</g>
<!-- EPF&#45;&gt;REPOC -->
<g id="edge19" class="edge">
<title>EPF&#45;&gt;REPOC</title>
<path fill="none" stroke="black" d="M965,-559.09C966.34,-558.71 967.68,-558.35 969,-558 1035.14,-540.53 1228.11,-555.98 1272,-503.5 1398.8,-351.86 1121.38,-154.11 998.62,-77.39"/>
<polygon fill="black" stroke="black" points="1000.63,-74.52 990.28,-72.22 996.94,-80.47 1000.63,-74.52"/>
</g>
<!-- LTW -->
<g id="node10" class="node">
<title>LTW</title>
<polygon fill="#bfefff" stroke="#bfefff" points="798.12,-422 725.88,-422 725.88,-386 798.12,-386 798.12,-422"/>
<text text-anchor="middle" x="762" y="-398.57" font-family="Times New Roman,serif" font-size="14.00">LT Writer</text>
</g>
<!-- FPF&#45;&gt;LTW -->
<g id="edge20" class="edge">
<title>FPF&#45;&gt;LTW</title>
<path fill="none" stroke="black" d="M762,-558C762,-536.18 762,-503.44 762,-473.85"/>
<polygon fill="black" stroke="black" points="765.5,-474.26 762,-464.26 758.5,-474.26 765.5,-474.26"/>
</g>
<!-- FA -->
<g id="node6" class="node">
<title>FA</title>
<polygon fill="PaleGreen" stroke="PaleGreen" points="556.12,-602 417.88,-602 417.88,-566 556.12,-566 556.12,-602"/>
<text text-anchor="middle" x="487" y="-578.58" font-family="Times New Roman,serif" font-size="14.00">Run Control Analyser</text>
</g>
<!-- FA&#45;&gt;VDPR -->
<g id="edge2" class="edge">
<title>FA&#45;&gt;VDPR</title>
<path fill="none" stroke="black" d="M479.28,-558C472.5,-536.07 462.32,-503.12 453.14,-473.42"/>
<polygon fill="black" stroke="black" points="456.59,-472.71 450.29,-464.19 449.9,-474.78 456.59,-472.71"/>
</g>
<!-- HTML -->
<g id="node19" class="node">
<title>HTML</title>
<polygon fill="#bfefff" stroke="#bfefff" points="220,-422 126,-422 126,-386 220,-386 220,-422"/>
<text text-anchor="middle" x="173" y="-398.57" font-family="Times New Roman,serif" font-size="14.00">HTML Writer</text>
</g>
<!-- FA&#45;&gt;HTML -->
<g id="edge3" class="edge">
<title>FA&#45;&gt;HTML</title>
<path fill="none" stroke="black" d="M409,-574.37C353.76,-564.84 280.61,-544.92 229,-503.5 218.49,-495.07 209.6,-484.09 202.21,-472.54"/>
<polygon fill="black" stroke="black" points="205.26,-470.83 197.13,-464.05 199.25,-474.43 205.26,-470.83"/>
</g>
<!-- VI -->
<g id="node7" class="node">
<title>VI</title>
<polygon fill="PaleGreen" stroke="PaleGreen" points="628.5,-782 531.5,-782 531.5,-746 628.5,-746 628.5,-782"/>
<text text-anchor="middle" x="580" y="-758.58" font-family="Times New Roman,serif" font-size="14.00">View Interface</text>
</g>
<!-- DB2 -->
<g id="node16" class="node">
<title>DB2</title>
<polygon fill="#bfefff" stroke="#bfefff" points="907.5,-422 822.5,-422 822.5,-386 907.5,-386 907.5,-422"/>
<text text-anchor="middle" x="865" y="-398.57" font-family="Times New Roman,serif" font-size="14.00">DB2 Reader</text>
</g>
<!-- VI&#45;&gt;DB2 -->
<g id="edge16" class="edge">
<title>VI&#45;&gt;DB2</title>
<path fill="none" stroke="black" d="M533.01,-745.59C490.9,-727.16 431.78,-693.64 405,-642.75 387.46,-609.42 380.21,-586.35 405,-558 524.56,-421.28 659.86,-605.7 810,-503.5 834.38,-486.91 849.11,-455.76 857.1,-432.92"/>
<polygon fill="black" stroke="black" points="860.37,-434.19 860.12,-423.6 853.71,-432.03 860.37,-434.19"/>
</g>
<!-- CI -->
<g id="node8" class="node">
<title>CI</title>
<polygon fill="PaleGreen" stroke="PaleGreen" points="767.12,-782 646.88,-782 646.88,-746 767.12,-746 767.12,-782"/>
<text text-anchor="middle" x="707" y="-758.58" font-family="Times New Roman,serif" font-size="14.00">Compiler Interface</text>
</g>
<!-- CI&#45;&gt;EPF -->
<g id="edge17" class="edge">
<title>CI&#45;&gt;EPF</title>
<path fill="none" stroke="black" d="M725.66,-745.61C759.61,-713.97 831.58,-646.9 870.93,-610.23"/>
<polygon fill="black" stroke="black" points="873.23,-612.87 878.16,-603.49 868.45,-607.75 873.23,-612.87"/>
</g>
<!-- LTR -->
<g id="node9" class="node">
<title>LTR</title>
<polygon fill="#bfefff" stroke="#bfefff" points="707.38,-422 630.62,-422 630.62,-386 707.38,-386 707.38,-422"/>
<text text-anchor="middle" x="669" y="-398.57" font-family="Times New Roman,serif" font-size="14.00">LT Reader</text>
</g>
<!-- REPOL -->
<g id="node11" class="node">
<title>REPOL</title>
<polygon fill="#bfefff" stroke="#bfefff" points="714.75,-242 631.25,-242 631.25,-206 714.75,-206 714.75,-242"/>
<text text-anchor="middle" x="673" y="-218.57" font-family="Times New Roman,serif" font-size="14.00">Logic Table</text>
</g>
<!-- LTR&#45;&gt;REPOL -->
<g id="edge5" class="edge">
<title>LTR&#45;&gt;REPOL</title>
<path fill="none" stroke="black" d="M669.39,-385.61C670.08,-354.9 671.52,-290.81 672.36,-253.54"/>
<polygon fill="black" stroke="black" points="675.85,-254.05 672.57,-243.98 668.85,-253.89 675.85,-254.05"/>
</g>
<!-- LTW&#45;&gt;REPOL -->
<g id="edge6" class="edge">
<title>LTW&#45;&gt;REPOL</title>
<path fill="none" stroke="black" d="M753.3,-385.61C737.82,-354.64 705.35,-289.7 686.79,-252.58"/>
<polygon fill="black" stroke="black" points="690.01,-251.19 682.41,-243.82 683.75,-254.33 690.01,-251.19"/>
</g>
<!-- REPOV -->
<g id="node14" class="node">
<title>REPOV</title>
<polygon fill="#bfefff" stroke="#bfefff" points="606.5,-242 491.5,-242 491.5,-206 606.5,-206 606.5,-242"/>
<text text-anchor="middle" x="549" y="-218.57" font-family="Times New Roman,serif" font-size="14.00">VDP File Objects</text>
</g>
<!-- VDPR&#45;&gt;REPOV -->
<g id="edge10" class="edge">
<title>VDPR&#45;&gt;REPOV</title>
<path fill="none" stroke="black" d="M443.43,-385.61C463.96,-354.37 507.21,-288.58 531.49,-251.63"/>
<polygon fill="black" stroke="black" points="534.12,-254.01 536.69,-243.73 528.27,-250.16 534.12,-254.01"/>
</g>
<!-- VDPW -->
<g id="node13" class="node">
<title>VDPW</title>
<polygon fill="#bfefff" stroke="#bfefff" points="606.5,-422 503.5,-422 503.5,-386 606.5,-386 606.5,-422"/>
<text text-anchor="middle" x="555" y="-398.57" font-family="Times New Roman,serif" font-size="14.00">VDPFile Writer</text>
</g>
<!-- VDPW&#45;&gt;REPOV -->
<g id="edge9" class="edge">
<title>VDPW&#45;&gt;REPOV</title>
<path fill="none" stroke="black" d="M554.41,-385.61C553.38,-354.9 551.22,-290.81 549.96,-253.54"/>
<polygon fill="black" stroke="black" points="553.47,-253.85 549.64,-243.97 546.48,-254.09 553.47,-253.85"/>
</g>
<!-- REPOM -->
<g id="node23" class="node">
<title>REPOM</title>
<polygon fill="#bfefff" stroke="#bfefff" points="898.5,-62 831.5,-62 831.5,-26 898.5,-26 898.5,-62"/>
<text text-anchor="middle" x="865" y="-38.58" font-family="Times New Roman,serif" font-size="14.00">Metadata</text>
</g>
<!-- REPOV&#45;&gt;REPOM -->
<g id="edge21" class="edge">
<title>REPOV&#45;&gt;REPOM</title>
<path fill="none" stroke="black" d="M593.38,-198C648.17,-167.14 741.65,-114.48 803.38,-79.71"/>
<polygon fill="black" stroke="black" points="804.69,-82.99 811.68,-75.03 801.25,-76.89 804.69,-82.99"/>
</g>
<!-- WB&#45;&gt;REPOC -->
<g id="edge11" class="edge">
<title>WB&#45;&gt;REPOC</title>
<path fill="none" stroke="black" d="M959.23,-385.73C957.15,-339.3 951.35,-209.54 947.54,-124.22"/>
<polygon fill="black" stroke="black" points="951.04,-124.09 947.1,-114.26 944.05,-124.41 951.04,-124.09"/>
</g>
<!-- DB2&#45;&gt;REPOM -->
<g id="edge18" class="edge">
<title>DB2&#45;&gt;REPOM</title>
<path fill="none" stroke="black" d="M865,-385.73C865,-339.3 865,-209.54 865,-124.22"/>
<polygon fill="black" stroke="black" points="868.5,-124.26 865,-114.26 861.5,-124.26 868.5,-124.26"/>
</g>
<!-- PG -->
<g id="node17" class="node">
<title>PG</title>
<polygon fill="#bfefff" stroke="#bfefff" points="1120.12,-422 1011.88,-422 1011.88,-386 1120.12,-386 1120.12,-422"/>
<text text-anchor="middle" x="1066" y="-398.57" font-family="Times New Roman,serif" font-size="14.00">Postgres Reader</text>
</g>
<!-- VX -->
<g id="node18" class="node">
<title>VX</title>
<polygon fill="#bfefff" stroke="#bfefff" points="1259.5,-422 1138.5,-422 1138.5,-386 1259.5,-386 1259.5,-422"/>
<text text-anchor="middle" x="1199" y="-398.57" font-family="Times New Roman,serif" font-size="14.00">VDP XML Reader</text>
</g>
<!-- HTML&#45;&gt;REPOL -->
<g id="edge7" class="edge">
<title>HTML&#45;&gt;REPOL</title>
<path fill="none" stroke="black" d="M229,-378C302.47,-349.01 519.03,-276.27 620.02,-242.6"/>
<polygon fill="black" stroke="black" points="614.55,-249.56 621.67,-241.71 611.21,-243.4 614.55,-249.56"/>
</g>
<!-- DOT -->
<g id="node20" class="node">
<title>DOT</title>
<polygon fill="#bfefff" stroke="#bfefff" points="108.12,-422 23.88,-422 23.88,-386 108.12,-386 108.12,-422"/>
<text text-anchor="middle" x="66" y="-398.57" font-family="Times New Roman,serif" font-size="14.00">DOT Writer</text>
</g>
<!-- DOT&#45;&gt;REPOM -->
<g id="edge8" class="edge">
<title>DOT&#45;&gt;REPOM</title>
<path fill="none" stroke="black" d="M94.16,-378C145,-334.06 257.02,-242.66 366,-190 514.26,-118.36 704.77,-75.17 801.91,-56.27"/>
<polygon fill="black" stroke="black" points="802.36,-59.75 811.52,-54.43 801.04,-52.88 802.36,-59.75"/>
</g>
<!-- VXW -->
<g id="node21" class="node">
<title>VXW</title>
<polygon fill="#bfefff" stroke="#bfefff" points="354.25,-422 237.75,-422 237.75,-386 354.25,-386 354.25,-422"/>
<text text-anchor="middle" x="296" y="-398.57" font-family="Times New Roman,serif" font-size="14.00">VDP XML Writer</text>
</g>
</g>
</svg>
